<?xml version="1.0" encoding="UTF-8"?>
<svg xmlns="http://www.w3.org/2000/svg" xmlns:xlink="http://www.w3.org/1999/xlink" version="1.1" x="0px" y="0px" viewBox="0 0 3000 3000" style="enable-background:new 0 0 3000 3000;" xml:space="preserve"><style type="text/css">.transparent { opacity: 0.3; } /* .st2 */
.capy-incognito .main { fill: #FFFFFF } /* st3 - main color of the capy */
.capy-incognito .secondary { fill: #FFFFFF  } /* secondary color of the capy */
.capy-incognito .belly { fill: #FFFFFF } /* st6 - belly coloring on default */
.outline{ fill:none; stroke:#28211F; stroke-width:23; stroke-linecap:round; stroke-linejoin:round; stroke-miterlimit:10; }

/* section of default colors used throughout template */

.st1{ display:inline; }
.st2{ opacity:0.3; }
.st4{ opacity:0.2; }
.st7{ fill:#4E4844; }
.st5{ fill:none; stroke:#28211F; stroke-width:23; stroke-linecap:round; stroke-linejoin:round; stroke-miterlimit:10; }
.st9{ fill:#FFF1D6; stroke:#FFF1D6; stroke-width:23; stroke-miterlimit:10; }
.st11{ opacity:0.15; }
.st13{ fill:#5D5C60; }
.st14{ fill:#F9F6FF; }

/* outline */
.st33{ fill:none; stroke:#28211F; stroke-width:23; stroke-miterlimit:10; }
/* fox head */
.st37{ fill:none;stroke:#28211F;stroke-width:26;stroke-linecap:round;stroke-linejoin:round;stroke-miterlimit:10; }
.st34{ fill:#28211F; }
.st36{ fill:#F28181; }
.st35{ fill:#FFFFFF; }
.st38{ fill:#DC7BA8; }

.logo-outline { fill:#1D2947; }
.logo-outline-2 { fill-rule: evenodd; clip-rule: evenodd; }
</style><style type="text/css">.outline1{fill:none;stroke:#28211F;stroke-width:23;stroke-miterlimit:10;}
.outline2{fill:none;stroke:#28211F;stroke-width:23;stroke-linecap:round;stroke-linejoin:round;stroke-miterlimit:10;}
.inner-ear{fill:#D5CBB1;}
</style>
<style>
    .holiday-coat .st1{fill:#4E4844;}
    .holiday-coat .st2{fill:#A87C4C;}
    .holiday-coat .main-color{fill:#D85A58;}
    .holiday-coat .st5{fill:#FFFFFF;}
    .holiday-coat .st7{opacity:0.2;}
    .holiday-coat .st8{fill:#543E26;}
    .holiday-coat .st9{fill:#FBD638;}
</style>
<style>.capy-incognito .left-hand { display: none; }
.capy-incognito .right-hand { display: none; }</style>

<ellipse class="transparent st2" id="incognito-dropshadow" cx="1350.4" cy="2515.2" rx="472.8" ry="130.6"></ellipse><g class="capy-incognito" id="incognito-body"><g id="body-basic" class="body-basic">
    <g class="right-hand">
        <path class="st7" d="M1599,1997c0,0,17.2,79.4,53,67.5c16.3-5.4,7-42.5,7-42.5s23.7,22.3,42.9,5.1c17-15.1-5.6-44.3-5.6-44.3 s39.4,14.6,46.3-2c18.5-44.2-74.6-58.8-74.6-58.8C1636,1940.2,1611.4,1964,1599,1997z"></path>
        <path class="st3 main" d="M1668,1922.2c-28.3,22.6-51.2,49.4-69,74.8c-22.3-22-44.4-50-64.2-80.5c-60.5-93.2-50.5-185.4-50.5-185.4 l96.6-28.6c0,0-7,70.9,36.4,154.6C1630.8,1882.9,1649.5,1903.9,1668,1922.2z"></path>
        <path class="st5" d="M1484.3,1731.1c0,0-10,92.1,50.5,185.4c19.8,30.5,41.9,58.5,64.2,80.5l0,0c0,0,17.2,79.4,53,67.5 c16.3-5.4,7-42.5,7-42.5s23.7,22.3,42.9,5.1c17-15.1-5.6-44.3-5.6-44.3s39.4,14.6,46.3-2c18.5-44.2-74.6-58.8-74.6-58.8l0,0 c-18.4-18.3-37.2-39.3-50.6-65.2c-43.4-83.7-36.5-154.6-36.5-154.6"></path>
    </g>
    <g class="right-leg">
        <path class="st7" d="M1350.4,2447.8c10.7,36.4,24.4,71.5,37.6,71.5h230.8C1618.8,2519.3,1662.9,2390.1,1350.4,2447.8z"></path>
        <path class="st3 main" d="M1329.1,2361.6c5.1,25.2,14.8,67.2,22.3,92.4c47.1-14,84.1-18,113-16.5c11.1-26.7,24.1-68.3,31.1-95.9 C1471.8,2352.2,1397.9,2357.6,1329.1,2361.6z"></path>
        <path class="st5" d="M1329.1,2361.6c12.7,61.2,37.3,157.7,58.8,157.7h0.7h230.2c0,0,29.7-115.7-177.8-77.6l23.4-4.3 c11.5-26.2,21.8-61.3,29.4-89.5"></path>
        <path class="st5" d="M1580.7,2516c0,0-3.1-48.1-73.7-44.2"></path>
    </g>
    <g class="body">
        <path class="st3 main" d="M1172.3,1501.2c82.2-7.6,163.4-8.1,243.6-0.8c83.8,7.6,152.9,72.6,169.7,158.6 c31.8,163.7,50.1,328.3,52.1,493.9c1.3,105-75.8,193.4-176.2,201.8c-109.4,9.1-217.6,9.1-324.6-0.1 c-96.6-8.4-172.9-90.7-175.7-191.7c-4.5-161.5,10.1-328.4,40.6-499.7C1017.4,1575.7,1087.2,1509.1,1172.3,1501.2z"></path>
        <path class="st6 belly" d="M1477.3,1818.9c91.8,0,115.7,210.6,115.7,292.7c0,82.1-51.3,133.4-115.7,133.4 c-64.4,0-115.7-51.3-115.7-133.4C1361.6,2029.6,1385.5,1818.9,1477.3,1818.9z"></path>
        <path class="st4" d="M1630.6,2171c-18.1,98.3-86.4,174.1-171.4,182.5c-109.4,10.8-217.6,10.8-324.7-0.1 c-84.5-8.7-153.5-84-171.2-182.2c34.5,62.4,91.2,105.4,156.3,112c116.9,12,235.1,12,354.6,0.2 C1539.7,2276.9,1596.2,2233.6,1630.6,2171z"></path>
        <path class="st5" d="M1074,2337.8c-65-30.4-110.8-97.1-112.9-174.8c-4.5-161.5,10.1-328.4,40.6-499.7     c15.6-87.6,85.5-154.1,170.6-162c82.2-7.6,163.4-8.1,243.6-0.8c83.8,7.6,152.9,72.6,169.7,158.6     c31.8,163.7,50.1,328.3,52.1,493.9c1.1,87.9-52.8,164.2-129.3,191.6c-44.2,13.8-149.6,14.4-266,13.8"></path>
    </g>
    <g class="left-leg">
        <path class="st7" d="M1103.6,2447.8c10.7,36.4,24.4,71.5,37.6,71.5H1372C1372,2519.3,1416.1,2390.1,1103.6,2447.8z"></path>
        <path class="st3 main" d="M1073.6,2338.2c5.1,25.2,23.6,90.6,31,115.8c47.1-14,84.1-18,113-16.5c11.1-26.7,17.9-51.5,24.8-79.1 C1130.3,2355.8,1103.8,2350.8,1073.6,2338.2z"></path>
        <path class="st5" d="M1073.6,2338.2c12.7,61.2,46.1,181.1,67.5,181.1h0.7H1372c0,0,29.7-115.7-177.8-77.6l23.4-4.3 c12.4-28.2,16.9-46.7,24.6-75.9"></path>
        <path class="st5" d="M1333.9,2516c0,0-3.1-48.1-73.7-44.2"></path>
    </g>
    <g id="" class="left-hand">
        <path class="st7" d="M838.3,1652.2c0,0-76.6-27-60.4-60.9c7.4-15.5,43-1.7,43-1.7s-19.2-26.3,0.2-43.2 c17.1-15,43.3,11.1,43.3,11.1s-9.6-40.9,7.7-45.7c46.2-12.9,49,81.3,49,81.3C899.2,1622.5,872.6,1643.9,838.3,1652.2z"></path>
        <path class="st3 main" d="M921.1,1593c-26,25.3-55.4,44.7-82.8,59.2c19.1,24.9,92.6,97.2,158.7,127.1 c85.6,38.7,159.6,21.4,159.6,21.4c32.7-33.5,17.2-83.5-28.3-94c0,0-71.2-1.9-148.9-55.4C955.5,1634.8,936.9,1613.6,921.1,1593z"></path>
        <path class="st5" d="M1156.6,1800.7c0,0-76.2,26.9-187.2-35.5c-31.7-17.8-112-88.2-131.1-113l0,0c0,0-76.6-27-60.4-60.9 c7.4-15.5,43-1.7,43-1.7s-19.2-26.3,0.2-43.2c17.1-15,43.3,11.1,43.3,11.1s-9.6-40.9,7.7-45.7c46.2-12.9,49,81.3,49,81.3l0,0 c15.8,20.6,34.4,41.8,58.4,58.3c77.6,53.4,148.9,55.4,148.9,55.4"></path>
    </g>
</g>
</g><g class="holiday-coat">
    <g>
        <path class="st1" d="M1599,1997c0,0,17.2,79.4,53,67.5c16.3-5.4,7-42.5,7-42.5s23.7,22.3,42.9,5.1c17-15.1-5.6-44.3-5.6-44.3    s39.4,14.6,46.3-2c18.5-44.2-74.6-58.8-74.6-58.8C1636,1940.2,1611.4,1964,1599,1997z"></path>
        <path class="st2" d="M1668,1922.2c-28.3,22.6-51.2,49.4-69,74.8c-22.3-22-44.4-50-64.2-80.5c-60.5-93.2-50.5-185.4-50.5-185.4    l96.6-28.6c0,0-7,70.9,36.4,154.6C1630.8,1882.9,1649.5,1903.9,1668,1922.2z"></path>
        <path class="outline" d="M1484.3,1731.1c0,0-10,92.1,50.5,185.4c19.8,30.5,41.9,58.5,64.2,80.5l0,0c0,0,17.2,79.4,53,67.5    c16.3-5.4,7-42.5,7-42.5s23.7,22.3,42.9,5.1c17-15.1-5.6-44.3-5.6-44.3s39.4,14.6,46.3-2c18.5-44.2-74.6-58.8-74.6-58.8l0,0    c-18.4-18.3-37.2-39.3-50.6-65.2c-43.4-83.7-36.5-154.6-36.5-154.6"></path>
    </g>
    <g id="RIGHT_x5F_HAND">
        <path class="main-color" d="M1484.8,1727.3c0,0,66.6-73.5,121.5-28.8c0,0,1.3,141.7,75.6,204.9c0,0-70.7,18.3-98.7,89.3    C1583.2,1992.8,1468.9,1879.8,1484.8,1727.3z"></path>
        <path class="outline" d="M1483.8,1739c2.1-73.6,124.9-89.8,123.1-26.7c0,0,0.7,127.9,74.9,191.1c0,0-70.7,18.3-98.7,89.3    C1583.2,1992.8,1468,1891.5,1483.8,1739z"></path>
        <path class="st5" d="M1598.2,2019.4c0,0-19.1-3.4-51.7-49.8c-17.2-23.8,52.7-112.9,115-108c0,0,26.3,18.1,39.7,51.6     C1639.4,1936.6,1602.3,1959.3,1598.2,2019.4z"></path>
        <path class="outline" d="M1598.2,2019.4c0,0-19.1-3.4-51.7-49.8c-17.2-23.8,52.7-112.9,115-108c0,0,26.3,18.1,39.7,51.6     C1639.4,1936.6,1602.3,1959.3,1598.2,2019.4z"></path>
    </g>
    <g id="LEFT_x5F_SIDE">
        <path class="main-color" d="M1006.9,2278c104.8-14.5,291.1-11.7,468.3-12.1c39.8,4.3,70.2-27.6,69.7-66.2l-9.7-358.2     c-0.7-26-7.9-51.4-21-73.9c-20.3-34.9-42.8-59.1-91.7-81.9c-28.9-13.5-89.6-33.5-128.8-34c-87.7-1.1-176-27.9-242.8-66.7     c-17.4-10.1-39.8-5-50.6,12c-75.1,117.6-90.2,417-68.9,620.2C935.4,2256.2,969,2285.3,1006.9,2278z"></path>
        <path class="outline" d="M1006.9,2278c104.8-14.5,291.1-11.7,468.3-12.1c39.8,4.3,70.2-27.6,69.7-66.2l-9.7-358.2     c-0.7-26-7.9-51.4-21-73.9c-20.3-34.9-42.8-59.1-91.7-81.9c-28.9-13.5-89.6-33.5-128.8-34c-87.7-1.1-176-27.9-242.8-66.7     c-17.4-10.1-39.8-5-50.6,12c-75.1,117.6-90.2,417-68.9,620.2C935.4,2256.2,969,2285.3,1006.9,2278z"></path>
        <path class="st5" d="M1512.1,2177.3c-276.4-8.3-453.8,1.7-567.7,20.5c-13.8,2.3-23.2,15.3-21,29.2l7.2,45.2     c2.1,13.2,14.1,22.6,27.5,21.4c180.3-16.3,361.6-21.1,551.6-17.9c14,0.2,25.6-10.8,25.9-24.8l1.2-47.4     C1537.2,2189.4,1526.2,2177.7,1512.1,2177.3z"></path>
        <path class="outline" d="M1512.1,2177.3c-276.4-8.3-453.8,1.7-567.7,20.5c-13.8,2.3-23.2,15.3-21,29.2l7.2,45.2     c2.1,13.2,14.1,22.6,27.5,21.4c180.3-16.3,361.6-21.1,551.6-17.9c14,0.2,25.6-10.8,25.9-24.8l1.2-47.4     C1537.2,2189.4,1526.2,2177.7,1512.1,2177.3z"></path>
        <path class="st5" d="M971.2,1574.1c-2.8,11.9,0.6,27.3,10.4,34.6c49.2,36.8,161.9,89.7,305.4,90.2      c134.2,0.5,169.8,84.6,179.3,125.6c2.9,12.6,14.5,21.1,27.4,20.2l33.9-2.4c13.9-1,24.2-13.3,22.5-27.1      c-11.4-96.5-63.1-197.8-243.7-201.2c-134.5-2.5-219.7-47.7-274.3-86.3c-10.4-7.4-25.9-4.8-35.2,4      C983.3,1544.4,975,1557.5,971.2,1574.1z"></path>
        <path class="outline" d="M971.2,1574.1c-2.8,11.9,0.6,27.3,10.4,34.6c49.2,36.8,161.9,89.7,305.4,90.2     c134.2,0.5,169.8,84.6,179.3,125.6c2.9,12.6,14.5,21.1,27.4,20.2l33.9-2.4c13.9-1,24.2-13.3,22.5-27.1     c-11.4-96.5-63.1-197.8-243.7-201.2c-134.5-2.5-219.7-47.7-274.3-86.3c-10.4-7.4-25.9-4.8-35.2,4     C983.3,1544.4,975,1557.5,971.2,1574.1z"></path>
        <path class="st7" d="M1535.7,2246.8l-0.1,4c-0.4,14-11.9,25.1-25.9,24.8c-4.9-0.1-9.8-0.2-14.8-0.2c-28.4-0.4-56.5-0.7-84.5-0.7    c-154.3-0.3-303.6,5.4-452.3,18.8c-13.3,1.2-25.3-8.1-27.5-21.4l-2.6-16.1c28.3,10.2,95.2-14.4,480.4-11.2    c-7.4-117.6-22-381.2-10.3-452.9c11-67.3,50.7-111.6,71.9-131c16.9,12.6,30.4,27.1,41.3,43l-26.7,23.3l9.6,518.7    C1507.8,2246.3,1521.6,2246.5,1535.7,2246.8L1535.7,2246.8z"></path>
    </g>
    <g id="RIGHT_x5F_SIDE">
        <path class="main-color" d="M1608.3,2277.4c-41.4-4.6-88.5-4-139.2-2.2c-17.4,0.6-31.2-12.9-32.9-30.2c-14.3-140.3-3.6-391.7,2.5-451.3     c3.9-38.3,12.9-72.9,45-95.2c19.9-13.9,66.4-47.6,89.2-80.6c7.6-11,24.5-8.5,28.7,4.2c39.1,117.2,101.1,523.3,51.3,635.4     C1645.4,2274.7,1626.8,2279.5,1608.3,2277.4z"></path>
        <path class="outline" d="M1608.3,2277.4c-41.4-4.6-88.5-4-139.2-2.2c-17.4,0.6-31.2-12.9-32.9-30.2c-14.3-140.3-3.6-391.7,2.5-451.3     c3.9-38.3,12.9-72.9,45-95.2c19.9-13.9,66.4-47.6,89.2-80.6c7.6-11,24.5-8.5,28.7,4.2c39.1,117.2,101.1,523.3,51.3,635.4     C1645.4,2274.7,1626.8,2279.5,1608.3,2277.4z"></path>
        <path class="st5" d="M1652.7,2199.9c-28.1-9.4-58.1-11.4-102.8-15.7c-9-0.9-26-4.7-28-40.7c-5.4-98.1-2.2-194.5,4.6-326.2     c-0.2-27.2,12.8-65.6,39.6-84.8c29.2-20.9,40.8-40.1,48.3-58.8c5.2-13.1,10.9-31.2,8.7-45.1c-2-13-15-32.2-30.1-41.3     c-8.2-4.9-17.2-4.5-24.6,12.5c-17,38.8-20.7,45.9-68.4,75.8c-49.5,31.1-64.7,88.6-66.5,127.3c-6.9,149.5-5.8,315.7-0.6,436.3     c0.9,21.5,14.9,39.8,39.3,38.6c38.1-1.9,114.7,1,161.9,9.8c11.3,2.1,18.1-7,22.9-17.4c4.2-9.1,7.6-25.2,8.8-43.2     C1666.5,2217.4,1661.8,2203,1652.7,2199.9z"></path>
        <path class="outline" d="M1652.7,2199.9c-28.1-9.4-58.1-11.4-102.8-15.7c-9-0.9-26-4.7-28-40.7c-5.4-98.1-2.2-194.5,4.6-326.2     c-0.2-27.2,12.8-65.6,39.6-84.8c29.2-20.9,40.8-40.1,48.3-58.8c5.2-13.1,10.9-31.2,8.7-45.1c-2-13-15-32.2-30.1-41.3     c-8.2-4.9-17.2-4.5-24.6,12.5c-17,38.8-20.7,45.9-68.4,75.8c-49.5,31.1-64.7,88.6-66.5,127.3c-6.9,149.5-5.8,315.7-0.6,436.3     c0.9,21.5,14.9,39.8,39.3,38.6c38.1-1.9,114.7,1,161.9,9.8c11.3,2.1,18.1-7,22.9-17.4c4.2-9.1,7.6-25.2,8.8-43.2     C1666.5,2217.4,1661.8,2203,1652.7,2199.9z"></path>
        <path class="st7" d="M1535.6,2246.8c66.9,1.4,103.3,12.3,124.6,14.6c-1,3.4-2.1,6.4-3.2,8.9c-4.8,10.4-11.6,19.5-22.9,17.4    c-47.3-8.8-123.9-11.7-161.9-9.8c-22.2,1.1-35.7-13.8-38.7-32.7C1465.4,2245.5,1499.4,2246.1,1535.6,2246.8z"></path>
    </g>
    <path id="BELT_x5F_SHADOW" class="st7" d="M1670.9,2150.2c-0.4,10.4-1,20.4-1.8,29.9c-38.5-13.2-87.8-20.2-175.3-23.2   c-199.4-6.9-372.1-1.6-565.7,25.9c-0.8-10-1.5-20.1-2.2-30.4c155.7-23.4,567.1-35.8,581-35.8   C1518.8,2116.6,1615,2137.7,1670.9,2150.2z"></path>
    <g id="BELT">
        <path class="st8" d="M1693.5,2149c-2.6,13.7-17.4,21.4-30.1,15.5c-22.4-10.3-61.8-17.5-141.5-21     c-139.3-6.2-370.6-11.6-593.8,24.4c-10.2,1.6-19.9-5.1-21.7-15.3c-3.5-19.8-5-37.6-4.9-56.1c0.1-12.6,9.4-23.4,21.9-25.2     c218.5-31.5,458.8-26.6,587.7-18.5c96.6,6.1,134.3,14.5,166.6,28.4c7.3,3.1,12.8,9.4,14.8,17.1     C1696.6,2113.7,1697.4,2128.3,1693.5,2149z"></path>
        <path class="outline" d="M1693.5,2149c-2.6,13.7-17.4,21.4-30.1,15.5c-22.4-10.3-61.8-17.5-141.5-21     c-139.3-6.2-370.6-11.6-593.8,24.4c-10.2,1.6-19.9-5.1-21.7-15.3c-3.5-19.8-5-37.6-4.9-56.1c0.1-12.6,9.4-23.4,21.9-25.2     c218.5-31.5,458.8-26.6,587.7-18.5c96.6,6.1,134.3,14.5,166.6,28.4c7.3,3.1,12.8,9.4,14.8,17.1     C1696.6,2113.7,1697.4,2128.3,1693.5,2149z"></path>
        <path class="st9" d="M1547.1,2014.5c-49.2-7.5-47.7-7.7-98.3-5.9c-22.8,0.8-43.8,20.7-47.2,39.4c-4.7,26.3-4.7,53.6,0.4,80.6     c2.3,12.1,14,36.4,36.8,36.6c46.1,0.2,57.5-1.3,99.1,5c21.6,3.3,45.2-17,48.1-34.7c5.6-33.9,7.4-59.1,6.3-77.1     C1591.2,2038.6,1577.5,2019.1,1547.1,2014.5z M1551.1,2074.6c0,16.6-1,20.7-3.1,39c-1.2,10.2-10.4,17.4-20.5,16.3     c-19-2-45.2-2.6-64.8-2.6c-10.3,0-18.2-8.1-19.4-18.4c-2.1-18.7-2.2-21.8-0.3-38.2c1.1-9.7,6.6-21.3,21.4-21.4     c24.1-0.2,44.4,0.1,67.5,3.3C1543.9,2054.3,1551.1,2065.9,1551.1,2074.6z"></path>
        <path class="outline" d="M1547.1,2014.5c-49.2-7.5-47.7-7.7-98.3-5.9c-22.8,0.8-43.8,20.7-47.2,39.4c-4.7,26.3-4.7,53.6,0.4,80.6     c2.3,12.1,14,36.4,36.8,36.6c46.1,0.2,57.5-1.3,99.1,5c21.6,3.3,45.2-17,48.1-34.7c5.6-33.9,7.4-59.1,6.3-77.1     C1591.2,2038.6,1577.5,2019.1,1547.1,2014.5z M1551.1,2074.6c0,16.6-1,20.7-3.1,39c-1.2,10.2-10.4,17.4-20.5,16.3     c-19-2-45.2-2.6-64.8-2.6c-10.3,0-18.2-8.1-19.4-18.4c-2.1-18.7-2.2-21.8-0.3-38.2c1.1-9.7,6.6-21.3,21.4-21.4     c24.1-0.2,44.4,0.1,67.5,3.3C1543.9,2054.3,1551.1,2065.9,1551.1,2074.6z"></path>
    </g>
    <g>
        <path class="st1" d="M1038.9,2008.6c0,0-30,75.5,6.2,85.6c16.5,4.6,29.5-31.3,29.5-31.3s7.2,31.7,32.8,28.2    c22.5-3.1,20.1-39.9,20.1-39.9s24.5,34.1,39.5,24.2c40.1-26.3-29.1-90.4-29.1-90.4C1101.3,1982.1,1067.7,1988.1,1038.9,2008.6z"></path>
        <path class="st2" d="M1137.9,1985c-36.1,3-70.1,12.4-99,23.5c-6.2-30.7-8.9-66.3-8.3-102.7c1.9-111.1,61.7-182,61.7-182l96.1,30.2    c0,0-45.4,54.9-56.1,148.6C1129,1931.6,1132.8,1959.6,1137.9,1985z"></path>
        <path class="outline" d="M1092.2,1724c0,0-59.8,70.9-61.7,182c-0.6,36.4,2.1,71.9,8.3,102.6l0,0c0,0-30,75.5,6.2,85.6    c16.5,4.6,29.5-31.3,29.5-31.3s7.2,31.7,32.8,28.2c22.5-3.1,20.1-39.9,20.1-39.9s24.5,34.1,39.5,24.2    c40.1-26.3-29.1-90.4-29.1-90.4l0,0c-5.1-25.4-8.9-53.4-5.6-82.3c10.7-93.6,56.1-148.6,56.1-148.6"></path>
    </g>
    <g class="left-hand">
        <path class="main-color" d="M1074.1,1726.3c41.1-61.2,153.5-9.4,118.4,43.1c0,0-67.6,108.6-38.5,201.6c0,0-69.5-22.2-131.1,22.9     C1022.9,1994,979.4,1846.9,1074.1,1726.3z"></path>
        <path class="outline" d="M1074.1,1726.3c41.1-61.2,153.5-9.4,118.4,43.1c0,0-67.6,108.6-38.5,201.6c0,0-69.5-22.2-131.1,22.9     C1022.9,1994,979.4,1846.9,1074.1,1726.3z"></path>
        <path class="st5" d="M1021.4,2024.5c0,0-14.4-13.1-17.2-69.7c-1.9-29.3,104.8-67.5,154.9-30c0,0,12.6,29.3,6.1,64.9     C1100.4,1976.4,1057,1975.9,1021.4,2024.5z"></path>
        <path class="outline" d="M1021.4,2024.5c0,0-14.4-13.1-17.2-69.7c-1.9-29.3,104.8-67.5,154.9-30c0,0,12.6,29.3,6.1,64.9     C1100.4,1976.4,1057,1975.9,1021.4,2024.5z" style="opacity:1;vector-effect:none;fill:#ff0000;fill-opacity:1;stroke:none;stroke-width:6.35188246;stroke-linecap:round;stroke-linejoin:round;stroke-miterlimit:4;stroke-dasharray:none;stroke-dashoffset:0;stroke-opacity:1"></path>
    </g>
</g>
<g class="capy-incognito" id="incognito-right-ear"><path class="main" d="M1246.6,752.1h-55.8c-16.1,0-30.5-14.2-33.1-34.1c-4.4-32.8-4-65.3,1.3-97.4c2.5-15.4,11.7-28.2,23.8-32.3 c23.5-8.1,47-9.7,70.5-2c13.3,4.4,23.3,18.2,25.3,35.2c3.9,32.2,4.5,63.8,1.4,94.6C1278,736.8,1263.3,752.1,1246.6,752.1z"></path><path class="outline1" d="M1246.6,752.1h-55.8c-16.1,0-30.5-14.2-33.1-34.1c-4.4-32.8-4-65.3,1.3-97.4c2.5-15.4,11.7-28.2,23.8-32.3 c23.5-8.1,47-9.7,70.5-2c13.3,4.4,23.3,18.2,25.3,35.2c3.9,32.2,4.5,63.8,1.4,94.6C1278,736.8,1263.3,752.1,1246.6,752.1z"></path></g><g class="capy-incognito" id="incognito-left-ear"><path class="main" d="M956.7,870.7l-41.8,36.9c-12.1,10.7-32.3,9.5-47.4-3.6c-25-21.7-46.2-46.3-63.5-73.9 c-8.3-13.2-9.9-28.9-3.5-40c12.3-21.6,28.8-38.4,51.5-48.1c12.9-5.5,29.5-1.7,42.3,9.6c24.3,21.6,45.5,44.9,63.7,69.9 C970.1,838.5,969.2,859.6,956.7,870.7z"></path><path class="outline1" d="M956.7,870.7l-41.8,36.9c-12.1,10.7-32.3,9.5-47.4-3.6c-25-21.7-46.2-46.3-63.5-73.9 c-8.3-13.2-9.9-28.9-3.5-40c12.3-21.6,28.8-38.4,51.5-48.1c12.9-5.5,29.5-1.7,42.3,9.6c24.3,21.6,45.5,44.9,63.7,69.9 C970.1,838.5,969.2,859.6,956.7,870.7z"></path></g><g class="capy-incognito" id="incognito-head"><g id="HEAD_00000111879766572767980810000009902080684217940157_">
    <path class="st3 main" d="M2327.3,1040.9c-8.8-34.9-18.6-69.3-29.2-103.4c-54.4-174.7-214.4-293.9-390.4-291.9 c-234.3,2.7-470.2,20.4-707.5,52.7c-241.5,32.8-394.8,277.2-326.3,521.9c22.3,79.7,47.3,157.1,75.2,231.9 c56.1,150.5,212.4,235.5,361.1,196.5c295.6-77.5,586.1-177.6,871.7-299.6C2298.2,1299.3,2359.8,1169,2327.3,1040.9z"></path>
    <path class="st4" d="M2326,1182.5c-20.5,73.4-71.7,135.5-144,166.5c-285.6,122-576.1,222.1-871.7,299.6  c-148.7,39-305-46-361.1-196.5c-27.9-74.8-52.9-152.2-75.2-231.9c-34.1-121.8-13.2-243.5,46.1-339.1c-27.5,78.9-32,168-7,257.2 c22.3,79.7,47.3,157.1,75.2,231.9c56.1,150.5,212.4,235.5,361.1,196.5c295.6-77.5,586.1-177.6,871.7-299.6 C2264.2,1248.6,2299.9,1219,2326,1182.5z"></path>
    <path class="st5" d="M2327.3,1040.9c-8.8-34.9-18.6-69.3-29.2-103.4c-54.4-174.7-214.4-293.9-390.4-291.9 c-234.3,2.7-470.2,20.4-707.5,52.7c-241.5,32.8-394.8,277.2-326.3,521.9c22.3,79.7,47.3,157.1,75.2,231.9 c56.1,150.5,212.4,235.5,361.1,196.5c295.6-77.5,586.1-177.6,871.7-299.6C2298.2,1299.3,2359.8,1169,2327.3,1040.9z"></path>
</g>
</g></svg>
